<?xml version="1.0" standalone="no"?>
<!DOCTYPE svg PUBLIC "-//W3C//DTD SVG 20010904//EN"
 "http://www.w3.org/TR/2001/REC-SVG-20010904/DTD/svg10.dtd">
<svg version="1.0" xmlns="http://www.w3.org/2000/svg"
 width="640.000000pt" height="640.000000pt" viewBox="0 0 640.000000 640.000000"
 preserveAspectRatio="xMidYMid meet">
<metadata>
Created by potrace 1.14, written by Peter Selinger 2001-2017
</metadata>
<g transform="translate(0.000000,640.000000) scale(0.100000,-0.100000)"
fill="#000000" stroke="none">
<path d="M2999 6116 c-2 -2 -40 -7 -84 -11 -44 -3 -89 -8 -100 -10 -11 -3 -38
-7 -60 -10 -81 -12 -111 -17 -155 -27 -25 -5 -56 -12 -70 -15 -61 -11 -268
-77 -375 -118 -605 -234 -1098 -644 -1453 -1212 -67 -107 -185 -355 -242 -506
-53 -145 -110 -352 -135 -497 -14 -83 -17 -107 -34 -260 -9 -77 -7 -508 2
-547 3 -12 8 -50 12 -84 15 -145 69 -380 128 -554 180 -530 484 -967 932
-1341 310 -258 742 -470 1161 -569 109 -26 131 -30 199 -40 22 -4 67 -10 100
-15 177 -26 568 -29 716 -5 13 2 42 6 64 9 224 29 497 103 735 201 177 73 430
216 590 334 105 78 260 213 362 317 390 398 657 900 772 1449 13 66 28 147 31
180 4 33 9 69 11 80 22 118 22 500 -1 675 -14 106 -29 195 -47 275 -11 50 -21
99 -24 110 -10 51 -80 261 -122 364 -148 372 -352 681 -642 971 -462 463
-1057 756 -1695 835 -27 4 -61 9 -75 12 -29 6 -495 14 -501 9z m536 -255 c624
-90 1138 -342 1560 -766 173 -173 308 -346 420 -535 94 -160 258 -550 279
-663 2 -12 11 -49 19 -82 8 -33 18 -76 21 -95 3 -19 8 -46 11 -60 3 -14 8 -45
11 -70 3 -25 7 -55 9 -68 17 -102 23 -378 12 -527 -31 -393 -152 -793 -340
-1120 -226 -395 -558 -737 -942 -970 -105 -63 -310 -167 -385 -194 -19 -7 -44
-17 -55 -22 -71 -32 -314 -102 -425 -122 -56 -11 -147 -26 -180 -31 -170 -25
-510 -25 -695 -1 -38 5 -55 8 -115 20 -14 3 -41 8 -60 11 -19 3 -53 10 -75 16
-22 5 -47 11 -55 13 -38 7 -114 30 -210 62 -934 317 -1622 1129 -1784 2103
-24 142 -31 246 -31 445 0 276 22 444 90 698 171 630 571 1180 1120 1540 114
74 294 171 405 217 41 17 84 35 95 40 85 36 320 105 430 126 22 4 42 8 45 9
11 3 107 18 140 21 143 18 200 20 390 19 118 -2 251 -8 295 -14z"/>
</g>
</svg>
